<?xml version="1.0" encoding="utf-8"?>
<svg version="1.1" id="Layer_1"
xmlns="http://www.w3.org/2000/svg"
xmlns:xlink="http://www.w3.org/1999/xlink"
width="550px" height="400px"
xml:space="preserve">
<g id="ShapeID_261" transform="matrix(1, 0, 0, 1, 0, 0)" >
 <clipPath  id="PathID626_ClipPathURL" clip-rule="nonzero">
<path d="M192.5 100.25L195.95 99.7L196.35 99.55L196 100.25C195.3 101.55 194.3 102.6 193.05 103.4C191.45 104.4 190.3 104.2 189.5 102.75C188.35 100.55 187.9 98.8 188.2 97.4C188.7 95.2 191 93 195 90.75L197.65 90.45C199.85 90.5 202.05 91.25 204.25 92.75L187.75 74.25C188.4 71.95 189.65 69.5 191.5 67C190.5 63.35 189.25 60.25 187.75 57.75C186.85 56.2 186.7 54.9 187.4 53.85C187.75 53.35 188.2 52.95 188.75 52.75C188.15 51.75 187.6 50.5 187.2 49.05C186.4 46.25 186.45 43.9 187.5 42C188.9 39.45 192.05 36.6 196.95 33.45C202.25 30.05 206.8 28.4 210.5 28.5L221.8 29.2C225.5 29.85 227.9 31.3 229 33.5C231.25 38 232.7 41.25 233.4 43.35C234.8 47.5 234.6 49.95 232.75 50.75C228.55 53.15 225.1 54.65 222.45 55.15C217.55 56.1 214.75 53.65 214 47.75L214.9 46.95C215.7 46.7 216.75 47.25 218 48.75C219.5 50.45 221.45 50.8 223.95 49.65C226.4 48.5 227.05 47.05 225.75 45.25C224.15 42.95 221.9 41.75 219.1 41.6C215.55 41.4 212.25 43.35 209.25 47.5C205.15 53.1 202.7 56.7 201.9 58.3C200.5 61.05 200.35 63.45 201.5 65.5C202.45 67.2 202.15 69.05 200.45 71.15L199 72.9C198.7 73.35 198.75 73.65 199.25 73.75C199.8 73.85 201.15 75.4 203.25 78.4C205.2 81.15 206.8 82.45 208 82.25C209.45 82.05 210.65 81.05 211.6 79.25C212.25 77.95 212.9 75.95 213.5 73.25C213.85 71.6 214.35 70.7 215 70.5C215.5 70.4 215.75 69.95 215.75 69.25C215.75 68.55 216.35 67.4 217.65 65.85C219.1 64.1 220.85 62.6 222.9 61.4C228.65 58 234.6 57.9 240.75 61.25C247.25 64.75 250.85 66.9 251.6 67.7C251.95 68.1 252.15 68.5 252.05 69L251.75 70.75C251.75 74 251.1 77 249.7 79.75C247.6 84 244.25 85.8 239.75 85C239.05 85 238.35 84.85 237.65 84.45C236.3 83.7 235.65 82.4 235.75 80.5L235.55 76.2C235.55 75.6 235.8 75.25 236.5 75.25C237 75.25 237.3 75.85 237.2 77.15C237.1 78.5 237.45 79.35 238.25 79.75C239.55 80.3 240.9 80.45 242.35 80.15C243.95 79.85 244.75 79.05 244.75 77.75C244.75 75.85 243.9 74.5 242.2 73.6C239.9 72.45 236.4 72.7 231.75 74.5C226.85 76.4 222.5 79.7 218.7 84.4C215.1 88.9 214.1 91.75 215.75 93C216.35 93.45 217.3 93.15 218.55 91.95L222.3 87.8C226.05 83.8 229.35 82.7 232.25 84.5L242.95 90.8C246.4 92.9 248.35 94.65 248.75 96C249 96.9 248.55 99.1 247.35 102.6C246.05 106.4 244.4 110.2 242.3 113.95C236.65 124.25 230.9 129.35 225 129.25C219.4 129.15 215.65 128.45 213.8 127.15C213.25 126.75 212.9 126.35 212.75 125.85L212.75 125.25L207.95 124.55C204.6 123.95 202.45 123.25 201.5 122.5C200.65 121.85 197.35 122.6 191.6 124.9C186 127.1 183.1 128.15 183 128C182.8 127.7 183.2 126.6 184.3 124.7L186 122L173.55 107.95C165.4 98.55 161.6 93.7 162.25 93.5C162.55 93.4 164.7 94.2 168.6 95.95C172.3 97.65 174.6 98.2 175.5 97.5L179.4 97.4C180.8 98.2 181.85 99.45 182.5 101.25C183.2 103.2 184.2 105 185.55 106.7C187.05 108.55 188.45 109.5 189.75 109.5L195.75 109.75L199 110.25C199.15 107.95 199.2 105.6 199 103.2C198.7 98.45 197.7 95.95 196 95.75C194.1 95.55 192.55 96.15 191.45 97.7C190.35 99.25 190.7 100.1 192.5 100.25M229.5 103L231.8 100.65C233.15 98.9 233.5 97.6 232.75 96.75L230.75 94.25L229.5 103M211.5 110.5C211.5 111.2 213.3 110.75 217 109.15L224.75 105.75C226 105.35 225.1 104.2 222 102.25L217 99.5L214.25 104.35C212.45 107.7 211.5 109.75 211.5 110.5"/>
</clipPath>
<path 
style="clip-path:url(#PathID626_ClipPathURL);fill:#FFFFFF;fill-opacity:1" d="M192.5 100.25L195.95 99.7L196.35 99.55L196 100.25C195.3 101.55 194.3 102.6 193.05 103.4C191.45 104.4 190.3 104.2 189.5 102.75C188.35 100.55 187.9 98.8 188.2 97.4C188.7 95.2 191 93 195 90.75L197.65 90.45C199.85 90.5 202.05 91.25 204.25 92.75L187.75 74.25C188.4 71.95 189.65 69.5 191.5 67C190.5 63.35 189.25 60.25 187.75 57.75C186.85 56.2 186.7 54.9 187.4 53.85C187.75 53.35 188.2 52.95 188.75 52.75C188.15 51.75 187.6 50.5 187.2 49.05C186.4 46.25 186.45 43.9 187.5 42C188.9 39.45 192.05 36.6 196.95 33.45C202.25 30.05 206.8 28.4 210.5 28.5L221.8 29.2C225.5 29.85 227.9 31.3 229 33.5C231.25 38 232.7 41.25 233.4 43.35C234.8 47.5 234.6 49.95 232.75 50.75C228.55 53.15 225.1 54.65 222.45 55.15C217.55 56.1 214.75 53.65 214 47.75L214.9 46.95C215.7 46.7 216.75 47.25 218 48.75C219.5 50.45 221.45 50.8 223.95 49.65C226.4 48.5 227.05 47.05 225.75 45.25C224.15 42.95 221.9 41.75 219.1 41.6C215.55 41.4 212.25 43.35 209.25 47.5C205.15 53.1 202.7 56.7 201.9 58.3C200.5 61.05 200.35 63.45 201.5 65.5C202.45 67.2 202.15 69.05 200.45 71.15L199 72.9C198.7 73.35 198.75 73.65 199.25 73.75C199.8 73.85 201.15 75.4 203.25 78.4C205.2 81.15 206.8 82.45 208 82.25C209.45 82.05 210.65 81.05 211.6 79.25C212.25 77.95 212.9 75.95 213.5 73.25C213.85 71.6 214.35 70.7 215 70.5C215.5 70.4 215.75 69.95 215.75 69.25C215.75 68.55 216.35 67.4 217.65 65.85C219.1 64.1 220.85 62.6 222.9 61.4C228.65 58 234.6 57.9 240.75 61.25C247.25 64.75 250.85 66.9 251.6 67.7C251.95 68.1 252.15 68.5 252.05 69L251.75 70.75C251.75 74 251.1 77 249.7 79.75C247.6 84 244.25 85.8 239.75 85C239.05 85 238.35 84.85 237.65 84.45C236.3 83.7 235.65 82.4 235.75 80.5L235.55 76.2C235.55 75.6 235.8 75.25 236.5 75.25C237 75.25 237.3 75.85 237.2 77.15C237.1 78.5 237.45 79.35 238.25 79.75C239.55 80.3 240.9 80.45 242.35 80.15C243.95 79.85 244.75 79.05 244.75 77.75C244.75 75.85 243.9 74.5 242.2 73.6C239.9 72.45 236.4 72.7 231.75 74.5C226.85 76.4 222.5 79.7 218.7 84.4C215.1 88.9 214.1 91.75 215.75 93C216.35 93.45 217.3 93.15 218.55 91.95L222.3 87.8C226.05 83.8 229.35 82.7 232.25 84.5L242.95 90.8C246.4 92.9 248.35 94.65 248.75 96C249 96.9 248.55 99.1 247.35 102.6C246.05 106.4 244.4 110.2 242.3 113.95C236.65 124.25 230.9 129.35 225 129.25C219.4 129.15 215.65 128.45 213.8 127.15C213.25 126.75 212.9 126.35 212.75 125.85L212.75 125.25L207.95 124.55C204.6 123.95 202.45 123.25 201.5 122.5C200.65 121.85 197.35 122.6 191.6 124.9C186 127.1 183.1 128.15 183 128C182.8 127.7 183.2 126.6 184.3 124.7L186 122L173.55 107.95C165.4 98.55 161.6 93.7 162.25 93.5C162.55 93.4 164.7 94.2 168.6 95.95C172.3 97.65 174.6 98.2 175.5 97.5L179.4 97.4C180.8 98.2 181.85 99.45 182.5 101.25C183.2 103.2 184.2 105 185.55 106.7C187.05 108.55 188.45 109.5 189.75 109.5L195.75 109.75L199 110.25C199.15 107.95 199.2 105.6 199 103.2C198.7 98.45 197.7 95.95 196 95.75C194.1 95.55 192.55 96.15 191.45 97.7C190.35 99.25 190.7 100.1 192.5 100.25" />
</g>
</svg>
