<?xml version="1.0" encoding="utf-8"?>
<svg version="1.1" id="Layer_1"
xmlns="http://www.w3.org/2000/svg"
xmlns:xlink="http://www.w3.org/1999/xlink"
width="550px" height="400px"
xml:space="preserve">
<g id="ShapeID_275" transform="matrix(0.156863, 0, 0, 0.156863, 0, 8)" >
 <clipPath  id="PathID645_ClipPathURL" clip-rule="nonzero">
<path d="M14.35 0L5 0L5 -37.1L14.25 -37.1C17.85 -37.1 20.7 -36.85 22.85 -36.3C24.95 -35.8 26.75 -35.05 28.25 -34.15C30.75 -32.55 32.75 -30.45 34.15 -27.8C35.55 -25.2 36.3 -22.1 36.3 -18.5C36.3 -15.15 35.55 -12.1 34.05 -9.3C32.6 -6.6 30.65 -4.45 28.2 -2.95C26.55 -1.9 24.65 -1.15 22.55 -0.65C20.5 -0.25 17.75 0 14.35 0M14.55 -32.85L9.95 -32.85L9.95 -4.25L14.55 -4.25C16.9 -4.25 18.95 -4.4 20.75 -4.75C22.5 -5.05 24.1 -5.7 25.6 -6.7C27.4 -7.85 28.8 -9.4 29.75 -11.35C30.65 -13.25 31.15 -15.65 31.15 -18.55C31.15 -21.45 30.65 -23.9 29.6 -25.9C28.6 -27.9 27.1 -29.45 25.1 -30.6C23.65 -31.4 22.1 -32 20.45 -32.35C18.85 -32.65 16.85 -32.85 14.55 -32.85"/>
</clipPath>
<path 
style="clip-path:url(#PathID645_ClipPathURL);fill:#FFCC00;fill-opacity:1" d="M14.35 0L5 0L5 -37.1L14.25 -37.1C17.85 -37.1 20.7 -36.85 22.85 -36.3C24.95 -35.8 26.75 -35.05 28.25 -34.15C30.75 -32.55 32.75 -30.45 34.15 -27.8C35.55 -25.2 36.3 -22.1 36.3 -18.5C36.3 -15.15 35.55 -12.1 34.05 -9.3C32.6 -6.6 30.65 -4.45 28.2 -2.95C26.55 -1.9 24.65 -1.15 22.55 -0.65C20.5 -0.25 17.75 0 14.35 0" />
</g>
<g id="ShapeID_276" transform="matrix(0.156863, 0, 0, 0.156863, 6.15, 8)" >
<path 
style="fill:#FFCC00;fill-opacity:1" d="M3.4 -33.3L3.4 -37.1L18.05 -37.1L18.05 -33.3L13.2 -33.3L13.2 -3.8L18.05 -3.8L18.05 0L3.4 0L3.4 -3.8L8.25 -3.8L8.25 -33.3L3.4 -33.3" />
</g>
<g id="ShapeID_277" transform="matrix(0.156863, 0, 0, 0.156863, 9.5, 8)" >
 <clipPath  id="PathID648_ClipPathURL" clip-rule="nonzero">
<path d="M21 -36.65C22.5 -36.35 23.85 -35.85 25.05 -35.1C26.35 -34.25 27.4 -33.15 28.2 -31.85C28.95 -30.6 29.35 -29 29.35 -27C29.35 -24.3 28.7 -22.05 27.3 -20.25C26 -18.45 24.15 -17.1 21.75 -16.2L35.7 0L29.3 0L16.85 -14.75L9.95 -14.75L9.95 0L5 0L5 -37.1L15.4 -37.1C17.6 -37.1 19.5 -36.95 21 -36.65M15.75 -32.85L9.95 -32.85L9.95 -18.85L14.9 -18.85C16.45 -18.85 17.8 -18.95 19 -19.25C20.15 -19.5 21.15 -20 22 -20.75C22.7 -21.45 23.25 -22.25 23.65 -23.15C24 -24.05 24.2 -25.2 24.2 -26.6C24.2 -27.65 24 -28.6 23.6 -29.45C23.25 -30.25 22.65 -30.95 21.75 -31.55C21.05 -32 20.2 -32.35 19.2 -32.55C18.25 -32.75 17.1 -32.85 15.75 -32.85"/>
</clipPath>
<path 
style="clip-path:url(#PathID648_ClipPathURL);fill:#FFCC00;fill-opacity:1" d="M21 -36.65C22.5 -36.35 23.85 -35.85 25.05 -35.1C26.35 -34.25 27.4 -33.15 28.2 -31.85C28.95 -30.6 29.35 -29 29.35 -27C29.35 -24.3 28.7 -22.05 27.3 -20.25C26 -18.45 24.15 -17.1 21.75 -16.2L35.7 0L29.3 0L16.85 -14.75L9.95 -14.75L9.95 0L5 0L5 -37.1L15.4 -37.1C17.6 -37.1 19.5 -36.95 21 -36.65" />
</g>
<g id="ShapeID_278" transform="matrix(0.156863, 0, 0, 0.156863, 15.05, 8)" >
<path 
style="fill:#FFCC00;fill-opacity:1" d="M9.95 -32.7L9.95 -22.55L29.4 -22.55L29.4 -18.15L9.95 -18.15L9.95 -4.4L29.4 -4.4L29.4 0L5 0L5 -37.1L29.4 -37.1L29.4 -32.7L9.95 -32.7" />
</g>
<g id="ShapeID_279" transform="matrix(0.156863, 0, 0, 0.156863, 20.1, 8)" >
<path 
style="fill:#FFCC00;fill-opacity:1" d="M26.95 -37C28.95 -36.55 31.15 -35.7 33.6 -34.45L33.6 -28.65L33.2 -28.65C31.2 -30.3 29.15 -31.5 27.1 -32.3C25.1 -33.1 23 -33.5 20.7 -33.5C18.85 -33.5 17.15 -33.2 15.6 -32.55C14.1 -31.95 12.8 -31.05 11.6 -29.75C10.5 -28.55 9.6 -26.95 8.95 -25.05C8.35 -23.15 8 -20.95 8 -18.45C8 -15.85 8.35 -13.65 9.05 -11.75C9.75 -9.9 10.65 -8.4 11.75 -7.2C12.9 -6 14.25 -5.05 15.8 -4.45C17.35 -3.9 19 -3.6 20.75 -3.6C23.1 -3.6 25.3 -4 27.4 -4.8C29.45 -5.6 31.4 -6.85 33.25 -8.5L33.6 -8.5L33.6 -2.7C32.7 -2.3 31.85 -1.95 31.1 -1.55C30.4 -1.25 29.4 -0.85 28.2 -0.45C27.2 -0.15 26.1 0.1 24.9 0.3C23.7 0.5 22.4 0.65 21 0.65C18.3 0.65 15.85 0.3 13.65 -0.45C11.45 -1.2 9.55 -2.4 7.9 -4C6.3 -5.55 5.05 -7.55 4.15 -10C3.3 -12.4 2.85 -15.25 2.85 -18.5C2.85 -21.5 3.25 -24.25 4.1 -26.65C4.95 -29.05 6.2 -31.1 7.85 -32.75C9.4 -34.35 11.3 -35.6 13.55 -36.45C15.75 -37.3 18.25 -37.75 21 -37.75C23 -37.75 24.95 -37.5 26.95 -37" />
</g>
<g id="ShapeID_280" transform="matrix(0.156863, 0, 0, 0.156863, 25.7, 8)" >
<path 
style="fill:#FFCC00;fill-opacity:1" d="M13.25 0L13.25 -32.7L0 -32.7L0 -37.1L31.45 -37.1L31.45 -32.7L18.2 -32.7L18.2 0L13.25 0" />
</g>
<g id="ShapeID_281" transform="matrix(0.156863, 0, 0, 0.156863, 30.65, 8)" >
<path 
style="fill:#FFCC00;fill-opacity:1" d="M3.4 -33.3L3.4 -37.1L18.05 -37.1L18.05 -33.3L13.2 -33.3L13.2 -3.8L18.05 -3.8L18.05 0L3.4 0L3.4 -3.8L8.25 -3.8L8.25 -33.3L3.4 -33.3" />
</g>
<g id="ShapeID_282" transform="matrix(0.156863, 0, 0, 0.156863, 34, 8)" >
 <clipPath  id="PathID654_ClipPathURL" clip-rule="nonzero">
<path d="M12.95 -0.5C10.85 -1.35 9 -2.6 7.5 -4.3C6 -5.9 4.85 -7.9 4.05 -10.3C3.25 -12.7 2.85 -15.4 2.85 -18.5C2.85 -21.5 3.2 -24.25 4 -26.65C4.8 -29.05 5.95 -31.1 7.5 -32.8C8.95 -34.4 10.75 -35.65 12.95 -36.55C15.1 -37.4 17.45 -37.85 20.05 -37.85C22.65 -37.85 25.05 -37.4 27.2 -36.5C29.3 -35.65 31.1 -34.4 32.6 -32.8C34.1 -31.15 35.25 -29.1 36.05 -26.7C36.85 -24.3 37.3 -21.6 37.3 -18.5C37.3 -15.5 36.9 -12.75 36.05 -10.3C35.25 -7.9 34.1 -5.9 32.6 -4.3C31.1 -2.6 29.25 -1.35 27.15 -0.5C25.1 0.3 22.75 0.75 20.05 0.75C17.45 0.75 15.1 0.35 12.95 -0.5M11.2 -29.65C9.1 -27.05 8 -23.35 8 -18.5C8 -13.65 9.05 -9.95 11.25 -7.35C13.45 -4.8 16.35 -3.5 20.05 -3.5C23.75 -3.5 26.65 -4.75 28.85 -7.35C31.05 -9.9 32.15 -13.6 32.15 -18.5C32.15 -23.3 31.1 -27.05 28.9 -29.65C26.75 -32.25 23.8 -33.6 20.05 -33.6C16.3 -33.6 13.35 -32.3 11.2 -29.65"/>
</clipPath>
<path 
style="clip-path:url(#PathID654_ClipPathURL);fill:#FFCC00;fill-opacity:1" d="M12.95 -0.5C10.85 -1.35 9 -2.6 7.5 -4.3C6 -5.9 4.85 -7.9 4.05 -10.3C3.25 -12.7 2.85 -15.4 2.85 -18.5C2.85 -21.5 3.2 -24.25 4 -26.65C4.8 -29.05 5.95 -31.1 7.5 -32.8C8.95 -34.4 10.75 -35.65 12.95 -36.55C15.1 -37.4 17.45 -37.85 20.05 -37.85C22.65 -37.85 25.05 -37.4 27.2 -36.5C29.3 -35.65 31.1 -34.4 32.6 -32.8C34.1 -31.15 35.25 -29.1 36.05 -26.7C36.85 -24.3 37.3 -21.6 37.3 -18.5C37.3 -15.5 36.9 -12.75 36.05 -10.3C35.25 -7.9 34.1 -5.9 32.6 -4.3C31.1 -2.6 29.25 -1.35 27.15 -0.5C25.1 0.3 22.75 0.75 20.05 0.75C17.45 0.75 15.1 0.35 12.95 -0.5" />
</g>
<g id="ShapeID_283" transform="matrix(0.156863, 0, 0, 0.156863, 40.3, 8)" >
<path 
style="fill:#FFCC00;fill-opacity:1" d="M5 0L5 -37.1L12.6 -37.1L28.65 -6.8L28.65 -37.1L33.25 -37.1L33.25 0L27.15 0L9.6 -33.15L9.6 0L5 0" />
</g>
<g id="ShapeID_284" transform="matrix(0.156863, 0, 0, 0.156863, 46.3, 8)" >
<path 
style="fill:#FFCC00;fill-opacity:1" d="M13.2 -16.95C9.9 -17.65 7.5 -18.8 5.9 -20.5C4.35 -22.2 3.55 -24.4 3.55 -27.1C3.55 -30.2 4.85 -32.75 7.45 -34.75C10.05 -36.75 13.35 -37.75 17.4 -37.75C20 -37.75 22.35 -37.5 24.55 -37C26.7 -36.5 28.65 -35.9 30.35 -35.15L30.35 -29.35L30 -29.35C28.6 -30.5 26.7 -31.5 24.4 -32.3C22.15 -33.1 19.8 -33.5 17.4 -33.5C14.8 -33.5 12.65 -32.95 11.05 -31.85C9.5 -30.75 8.7 -29.35 8.7 -27.6C8.7 -26.1 9.05 -24.85 9.85 -23.95C10.65 -23.1 12.05 -22.45 14.05 -21.95C15.1 -21.75 16.6 -21.45 18.55 -21.1C20.5 -20.8 22.15 -20.45 23.55 -20.1C26.25 -19.4 28.35 -18.25 29.75 -16.75C31.15 -15.3 31.85 -13.25 31.85 -10.55C31.85 -9.15 31.5 -7.7 30.8 -6.3C30.15 -4.9 29.2 -3.7 28 -2.7C26.7 -1.65 25.15 -0.8 23.35 -0.2C21.65 0.35 19.5 0.65 17 0.65C14.35 0.65 11.95 0.45 9.8 -0.05C7.7 -0.55 5.55 -1.3 3.35 -2.3L3.35 -8.5L3.65 -8.5C5.5 -6.95 7.65 -5.75 10.1 -4.85C12.55 -4.05 14.85 -3.6 17.05 -3.6C20.05 -3.6 22.45 -4.15 24.15 -5.3C25.85 -6.4 26.7 -7.95 26.7 -9.9C26.7 -11.5 26.3 -12.7 25.45 -13.5C24.65 -14.3 23.45 -14.9 21.8 -15.35C20.6 -15.65 19.25 -15.95 17.75 -16.15C16.35 -16.35 14.8 -16.6 13.2 -16.95" />
</g>
</svg>
