<?xml version="1.0" encoding="utf-8"?>
<svg version="1.1" id="Layer_1"
xmlns="http://www.w3.org/2000/svg"
xmlns:xlink="http://www.w3.org/1999/xlink"
width="74px" height="15px"
xml:space="preserve">
<g id="ShapeID_10" transform="matrix(1, 0, 0, 1, 0, 0)" >
<path 
style="fill:#FFFFFF;fill-opacity:1" d="M67.4 12.75L67.4 10.85L67.45 9C67.5 8.7 67.65 8.4 67.9 8.15C68.15 7.95 68.45 7.8 68.8 7.75L70.35 7.7L71.85 7.65L72.6 7.3L73.05 6.6C73.25 6.15 73.25 5.65 72.85 5.1C72.55 4.65 72.1 4.4 71.55 4.35L68.35 4.45C67.25 4.55 66.3 5 65.45 5.85C64.65 6.65 64.2 7.65 64.1 8.75C64 10.15 64 11.6 64.1 13.05C64.15 13.45 64.5 13.85 65.15 14.25L66.65 14.05C67.1 13.7 67.35 13.25 67.4 12.75" />
 <clipPath  id="PathID24_ClipPathURL" clip-rule="nonzero">
<path d="M60.6 10.9L59.25 11.4L57.55 11.35C56.95 11.25 56.5 10.9 56.2 10.4L59.05 10.35L61.9 10.3L62.8 10.1L63.4 9.45C63.5 8.75 63.45 8.05 63.15 7.35C62.9 6.7 62.5 6.15 61.9 5.65C61.1 4.95 60.05 4.55 58.85 4.4L55.55 4.75C54.95 4.95 54.45 5.25 53.95 5.75C53.5 6.2 53.15 6.75 52.9 7.35C52.5 8.35 52.45 9.45 52.75 10.55C53.05 11.7 53.65 12.6 54.6 13.2C55.3 13.8 56.15 14.15 57.25 14.3L60.2 14.1L61.75 13.45C62.25 13.15 62.6 12.75 62.85 12.25L62.8 11.25L61.95 10.65L60.6 10.9M58.1 6.9C58.95 6.9 59.55 7.2 59.95 7.9L56.25 7.95C56.55 7.3 57.2 6.95 58.1 6.9"/>
</clipPath>
<path 
style="clip-path:url(#PathID24_ClipPathURL);fill:#FFFFFF;fill-opacity:1" d="M60.6 10.9L59.25 11.4L57.55 11.35C56.95 11.25 56.5 10.9 56.2 10.4L59.05 10.35L61.9 10.3L62.8 10.1L63.4 9.45C63.5 8.75 63.45 8.05 63.15 7.35C62.9 6.7 62.5 6.15 61.9 5.65C61.1 4.95 60.05 4.55 58.85 4.4L55.55 4.75C54.95 4.95 54.45 5.25 53.95 5.75C53.5 6.2 53.15 6.75 52.9 7.35C52.5 8.35 52.45 9.45 52.75 10.55C53.05 11.7 53.65 12.6 54.6 13.2C55.3 13.8 56.15 14.15 57.25 14.3L60.2 14.1L61.75 13.45C62.25 13.15 62.6 12.75 62.85 12.25L62.8 11.25L61.95 10.65L60.6 10.9" />
<path 
style="fill:#FFFFFF;fill-opacity:1" d="M48.65 10.7L47.6 10.45L47.15 9.65L47 8.7L48.85 8.75L50.7 8.65C51.05 8.65 51.35 8.45 51.6 8.1L52 7.05C52.05 6.65 51.95 6.25 51.65 5.85C51.4 5.5 51.05 5.3 50.65 5.2L48.75 5.1L46.85 5.1L46.85 3.2L46.75 1.3C46.7 0.9 46.4 0.55 45.85 0.2L44.75 0.05C44.4 0.1 44.05 0.25 43.75 0.5C43.35 1.05 43.15 1.7 43.2 2.5C43.15 3.25 43.1 4.15 43.15 5.2L43.3 7.85L43.7 10.4C43.9 11.3 44.25 12.05 44.75 12.7C45.4 13.45 46.3 13.95 47.5 14.2C48.5 14.4 49.55 14.45 50.75 14.25C51.3 14.1 51.7 13.7 51.9 13.1C52.1 12.5 52.1 11.95 51.7 11.45C51.35 11 50.7 10.75 49.75 10.7L48.65 10.7" />
<path 
style="fill:#FFFFFF;fill-opacity:1" d="M37.5 8.75L39.1 8.75L40.7 8.7C41.15 8.75 41.55 8.65 41.95 8.3C42.3 8 42.5 7.65 42.55 7.15C42.6 6.75 42.5 6.3 42.2 5.9C41.95 5.55 41.6 5.3 41.15 5.2L39.25 5.1L37.35 5.1L37.35 3.1L37.25 1.1C37.05 0.55 36.65 0.2 35.95 0.05C35.35 -0.05 34.8 0.05 34.4 0.5C34.1 0.75 33.9 1.15 33.8 1.7L33.7 3.1L33.8 7.45C33.9 9.1 34.2 10.5 34.7 11.7C35.1 12.7 35.9 13.45 37.1 13.95L40.45 14.3L41.75 14C42.15 13.7 42.4 13.35 42.5 12.9C42.65 12.3 42.5 11.7 41.95 11.1C41.6 10.85 41 10.7 40.15 10.7L38.3 10.5L37.7 9.75L37.5 8.75" />
<path 
style="fill:#FFFFFF;fill-opacity:1" d="M31.35 3.55C32.05 3.4 32.45 3 32.6 2.35C32.8 1.75 32.7 1.2 32.2 0.6C31.75 0.1 31.2 -0.15 30.55 0.05C30.25 0.05 29.95 0.2 29.65 0.5L29.15 1.35L29.15 2.35C29.25 2.65 29.4 2.95 29.7 3.15C30.1 3.55 30.65 3.75 31.35 3.55" />
<path 
style="fill:#FFFFFF;fill-opacity:1" d="M17.55 10.5L16.7 10.9C16.25 11 15.8 10.9 15.4 10.55C15.05 10.25 14.85 9.85 14.8 9.35L14.75 7.3L14.7 5.3L13.85 4.45L12.7 4.35C12.3 4.35 11.95 4.6 11.7 5C11.5 5.4 11.35 5.8 11.4 6.25L11.4 8.5L11.6 10.75C11.9 11.9 12.65 12.85 13.75 13.55C14.85 14.25 16 14.5 17.2 14.25L18.55 13.85L19.75 13.1C20.95 13.95 22.1 14.4 23.15 14.3C24.35 14.3 25.5 13.9 26.5 12.95C27.45 12.05 28 11 28.1 9.7L28.05 5.7L27.7 4.9C27.5 4.7 27.25 4.5 26.95 4.4C26.6 4.2 26.2 4.2 25.7 4.4C25.3 4.6 25.05 4.9 24.85 5.3C24.7 5.8 24.6 6.45 24.6 7.3L24.6 9.35C24.7 9.8 24.55 10.2 24.1 10.55C23.7 10.85 23.3 11 22.8 10.9C22.5 10.9 22.25 10.8 22 10.55L21.55 9.8C21.5 9.5 21.45 9.05 21.5 8.55L21.55 7.2C21.55 6.15 21.4 5.35 21 4.75L20.25 4.35L19.45 4.3C19.1 4.35 18.8 4.55 18.5 4.85C18.25 5.15 18.1 5.45 18 5.85L18 7.8L17.95 9.7L17.55 10.5" />
<path 
style="fill:#FFFFFF;fill-opacity:1" d="M29.7 13.9C30.15 14.3 30.65 14.45 31.2 14.25C31.6 14.25 31.95 14.05 32.25 13.7L32.7 12.6L32.75 9.5L32.65 6.4C32.6 5.95 32.35 5.55 31.95 5.25C31.55 4.95 31.15 4.8 30.65 4.9C30.3 4.95 30 5.1 29.7 5.35C29.4 5.55 29.2 5.85 29.15 6.25L29.15 12.45C29.05 13 29.2 13.5 29.7 13.9" />
<path 
style="fill:#FFFFFF;fill-opacity:1" d="M10.65 11.9C10.45 11.25 10 10.85 9.4 10.75L7.25 10.7L5.1 10.65C4.8 10.65 4.5 10.5 4.2 10.2C3.95 9.95 3.8 9.65 3.7 9.3L3.65 8.25L3.65 7.2L6.5 7.25L9.35 7.15L10.5 6.4C10.75 5.95 10.85 5.5 10.7 5.05C10.7 4.7 10.55 4.4 10.25 4.1C9.95 3.85 9.65 3.7 9.3 3.65L6.5 3.6L3.7 3.6L3.6 1.4C3.55 0.95 3.3 0.55 2.85 0.25C2.45 0 2 -0.1 1.5 0.05C1.05 0.1 0.65 0.35 0.35 0.85C0.1 1.25 -0.05 1.75 0.05 2.25L0.05 5.65L0.05 9.1C0.05 10.2 0.4 11.2 1.15 12.2C1.85 13.1 2.7 13.75 3.8 14.1L5.95 14.35L8.15 14.35L9.4 14.25C9.85 14.15 10.2 13.95 10.4 13.6C10.8 13.15 10.9 12.6 10.65 11.9" />
</g>
</svg>
