<?xml version="1.0" encoding="utf-8"?>
<svg version="1.1" id="Layer_1"
xmlns="http://www.w3.org/2000/svg"
xmlns:xlink="http://www.w3.org/1999/xlink"
width="622px" height="3029px"
xml:space="preserve">
<g id="ShapeID_1" transform="matrix(1, 0, 0, 1, -920.05, 959.05)" >
<path 
style="fill:#CCCCCC;fill-opacity:1" d="M1164.5 663.35C1163.9 646.25 1166.9 631.1 1173.5 617.95L1174.85 619.45L1176.65 622.2C1180.35 637.5 1182.75 653.1 1183.8 668.9C1184.7 683.5 1187.8 697.8 1193.05 711.7C1197.1 722.4 1201 733.2 1204.7 744.1C1207.5 748.5 1210.6 752.8 1213.95 757C1219.6 764.1 1224 772.05 1227.15 780.8C1229.55 787.4 1232.7 793.65 1236.65 799.5C1241.6 806.8 1246.2 814.35 1250.5 822.15C1253.2 827.1 1256.3 831.8 1259.85 836.2C1260.25 836.65 1260.7 836.95 1261.2 837.15C1263.85 837.95 1266.55 838.55 1269.3 839.05L1272.4 843.45L1274.55 847.55L1276.25 851.8L1277.2 854.65L1277.5 856.05L1278.45 857.5L1280.2 860.3C1281.8 865.85 1283 871.5 1283.8 877.3C1284.35 881.5 1284.75 885.75 1285.05 890.05L1285.65 902.8L1285.75 907.05C1288.15 897.75 1290.25 887.85 1291.95 877.35C1293.75 866.05 1295.3 854.7 1296.65 843.3C1297.75 833.7 1299.65 824.3 1302.35 815.05C1302.65 814.05 1303.05 813.05 1303.65 812.1L1305.2 810.9C1305.45 810.8 1305.7 810.75 1305.95 810.9C1306.5 811.2 1307 811.65 1307.4 812.2L1309.2 814.95C1315.15 841.45 1317.45 868.4 1316.05 895.75C1314.25 931.35 1310.7 966.75 1305.4 1002C1303.35 1015.85 1299.55 1029.1 1293.95 1041.7L1292.4 1042.7C1291.5 1043 1290.65 1043 1289.75 1042.7C1289.2 1042.5 1288.65 1042.2 1288.15 1041.7L1287.05 1040.25L1286.25 1038.9L1284.8 1037.45L1283.35 1036.05L1281.65 1033.2C1278.65 1020.6 1276.2 1007.85 1274.35 994.95C1272.75 983.7 1271.95 972.35 1272.05 960.9C1272.15 951.3 1271.15 941.9 1269.05 932.6C1269 932.1 1268.85 931.85 1268.6 931.75C1266.35 930.9 1264 930.25 1261.55 929.75C1257.6 925.2 1254 920.35 1250.8 915.2L1237.75 894.4C1235.05 890.1 1232.65 885.65 1230.5 881.15C1223.3 865.85 1214.85 851.45 1205.1 837.85C1203.1 835.05 1201.2 832.1 1199.4 829.1L1193.6 812.1C1191.7 806.45 1189.9 800.75 1188.25 794.95C1186.8 789.75 1184.65 785.1 1181.75 780.95C1181.25 781.4 1180.8 781.65 1180.3 781.65C1179.8 781.65 1179.35 781.4 1178.95 780.85L1177.15 778.1C1173.35 758.45 1170.4 738.6 1168.3 718.6C1166.4 700.2 1165.15 681.8 1164.5 663.35" />
<path 
style="fill:#0000CC;fill-opacity:1" d="M1273 1115.2L1272.9 1114.55L1272.75 1115.2L1273 1115.2" />
<path 
style="fill:#0000CC;fill-opacity:1" d="M1302.6 944.6L1302.15 948.35L1301.65 950.85L1301.15 952.15L1300.85 952.6C1298.5 943 1297.55 932.85 1298.1 922.25C1298.6 912.15 1298.9 902.1 1298.95 892C1298.95 884.4 1299.25 876.85 1299.85 869.25C1299.95 867.5 1300.45 866.1 1301.25 865.05L1301.5 865.15L1301.9 865.5L1302.35 866.3C1302.9 868.4 1303.25 870.5 1303.35 872.65L1303.5 877.7L1303.5 881.45L1303.7 882.3L1304.05 883.15C1305.25 891.05 1305.85 899.05 1305.75 907.15L1305.4 928.6C1305.35 934.1 1304.4 939.45 1302.6 944.6" />
<path 
style="fill:#CCCCCC;fill-opacity:1" d="M1541.95 2069.95L920.05 2069.95L920.05 -959.05L1541.95 -959.05L1541.95 2069.95" />
</g>
</svg>
