<?xml version="1.0" encoding="utf-8"?>
<svg version="1.1" id="Layer_1"
xmlns="http://www.w3.org/2000/svg"
xmlns:xlink="http://www.w3.org/1999/xlink"
width="931px" height="524px"
xml:space="preserve">
<g id="ShapeID_6" transform="matrix(1, 0, 0, 1, -14.1, 10.45)" >
<path 
style="fill:#000000;fill-opacity:1" d="M600.2 494.7L607.6 493.35C623.5 490.95 645.85 486.9 674.6 481.15C726.6 470.75 764.55 462.2 788.5 455.5C804.95 450.95 832.45 444.25 871.05 435.4L916.2 425.2C928 423 937.4 421.4 944.3 420.5L944.3 -10.45L14.1 -10.45L14.1 479.35C32.8 484.3 55.5 489.35 82.2 494.45C141.35 505.75 195.3 511.85 244.1 512.7C311.5 513.85 373.95 513.25 431.55 510.85C501.65 507.95 557.85 502.55 600.2 494.7" />
</g>
</svg>
