<?xml version="1.0" encoding="utf-8"?>
<svg version="1.1" id="Layer_1"
xmlns="http://www.w3.org/2000/svg"
xmlns:xlink="http://www.w3.org/1999/xlink"
width="71px" height="15px"
xml:space="preserve">
<g id="ShapeID_13" transform="matrix(1, 0, 0, 1, 0, 0)" >
 <clipPath  id="PathID54_ClipPathURL" clip-rule="nonzero">
<path d="M52.45 10.5L52.45 8.55C52.45 5.95 53.9 4.6 56.8 4.6C59.65 4.6 61.1 5.9 61.1 8.55L61.1 10.5C61.1 13.15 59.7 14.5 56.8 14.5C53.9 14.5 52.45 13.2 52.45 10.5M58.1 10.8L58.1 8.3C58.1 7.5 57.65 7.05 56.75 7.05C55.85 7.05 55.4 7.45 55.4 8.3L55.4 10.8C55.4 11.6 55.85 12.05 56.75 12.05C57.65 12.05 58.1 11.65 58.1 10.8"/>
</clipPath>
<path 
style="clip-path:url(#PathID54_ClipPathURL);fill:#FFFFFF;fill-opacity:0.6" d="M52.45 10.5L52.45 8.55C52.45 5.95 53.9 4.6 56.8 4.6C59.65 4.6 61.1 5.9 61.1 8.55L61.1 10.5C61.1 13.15 59.7 14.5 56.8 14.5C53.9 14.5 52.45 13.2 52.45 10.5" />
<path 
style="fill:#FFFFFF;fill-opacity:0.6" d="M70.9 14.4L67.65 14.4L64.95 9.85L64.95 14.4L61.95 14.4L61.95 0.75L64.95 0.25L64.95 9L67.65 4.7L70.9 4.7L67.9 9.4L70.9 14.4" />
 <clipPath  id="PathID57_ClipPathURL" clip-rule="nonzero">
<path d="M42.9 10.5L42.9 8.55C42.9 5.95 44.35 4.6 47.25 4.6C50.1 4.6 51.55 5.9 51.55 8.55L51.55 10.5C51.55 13.15 50.15 14.5 47.25 14.5C44.35 14.5 42.9 13.2 42.9 10.5M45.9 8.3L45.9 10.8C45.9 11.6 46.35 12.05 47.25 12.05C48.15 12.05 48.6 11.65 48.6 10.8L48.6 8.3C48.6 7.5 48.15 7.05 47.25 7.05C46.35 7.05 45.9 7.45 45.9 8.3"/>
</clipPath>
<path 
style="clip-path:url(#PathID57_ClipPathURL);fill:#FFFFFF;fill-opacity:0.6" d="M42.9 10.5L42.9 8.55C42.9 5.95 44.35 4.6 47.25 4.6C50.1 4.6 51.55 5.9 51.55 8.55L51.55 10.5C51.55 13.15 50.15 14.5 47.25 14.5C44.35 14.5 42.9 13.2 42.9 10.5" />
 <clipPath  id="PathID59_ClipPathURL" clip-rule="nonzero">
<path d="M33.4 14.1L33.4 0.75L36.35 0.25L36.35 4.95L38.6 4.55C39.95 4.55 40.9 4.85 41.45 5.5C41.85 6 42.05 6.85 42.05 8.05L42.05 10.45C42.05 11.75 41.8 12.75 41.2 13.35C40.5 14.1 39.2 14.5 37.3 14.5L35.4 14.4L33.4 14.1M36.35 12.05L37.4 12.1C38.1 12.1 38.55 11.95 38.8 11.65L39.05 10.5L39.05 8.3L38.85 7.4C38.65 7.2 38.35 7.05 37.85 7.05L36.35 7.45L36.35 12.05"/>
</clipPath>
<path 
style="clip-path:url(#PathID59_ClipPathURL);fill:#FFFFFF;fill-opacity:0.6" d="M33.4 14.1L33.4 0.75L36.35 0.25L36.35 4.95L38.6 4.55C39.95 4.55 40.9 4.85 41.45 5.5C41.85 6 42.05 6.85 42.05 8.05L42.05 10.45C42.05 11.75 41.8 12.75 41.2 13.35C40.5 14.1 39.2 14.5 37.3 14.5L35.4 14.4L33.4 14.1" />
 <clipPath  id="PathID61_ClipPathURL" clip-rule="nonzero">
<path d="M30.25 14.45L28.4 14.5C26.9 14.5 25.75 14.15 25 13.4C24.3 12.7 23.95 11.7 23.95 10.4L23.95 8.45C23.95 5.85 25.35 4.55 28.15 4.55C30.95 4.55 32.4 5.85 32.4 8.45L32.4 10.4L26.9 10.4L26.9 10.6C26.9 11.15 27 11.55 27.3 11.75L28.65 12.05L32.15 11.7L32.15 14.1L30.25 14.45M28.15 6.8C27.35 6.8 26.9 7.2 26.9 8.05L26.9 8.45L29.4 8.45L29.4 8.05L29.15 7.15C28.95 6.95 28.65 6.8 28.15 6.8"/>
</clipPath>
<path 
style="clip-path:url(#PathID61_ClipPathURL);fill:#FFFFFF;fill-opacity:0.6" d="M30.25 14.45L28.4 14.5C26.9 14.5 25.75 14.15 25 13.4C24.3 12.7 23.95 11.7 23.95 10.4L23.95 8.45C23.95 5.85 25.35 4.55 28.15 4.55C30.95 4.55 32.4 5.85 32.4 8.45L32.4 10.4L26.9 10.4L26.9 10.6C26.9 11.15 27 11.55 27.3 11.75L28.65 12.05L32.15 11.7L32.15 14.1L30.25 14.45" />
<path 
style="fill:#FFFFFF;fill-opacity:0.6" d="M20.1 14.5C18.6 14.5 17.45 14.15 16.65 13.4C16 12.7 15.65 11.7 15.65 10.4L15.65 8.7C15.65 7.4 15.95 6.4 16.65 5.7C17.4 4.95 18.55 4.55 20.1 4.55L23.05 4.95L23.05 7.35L21.4 7.1L20.35 7.05L19 7.35C18.75 7.55 18.6 7.9 18.6 8.45L18.6 10.6C18.6 11.15 18.7 11.55 19 11.75L20.35 12.05L21.4 11.95L23.05 11.7L23.05 14.1L20.1 14.5" />
 <clipPath  id="PathID64_ClipPathURL" clip-rule="nonzero">
<path d="M6.45 11.6C6.45 10.7 6.7 10 7.3 9.5C7.8 9.1 8.55 8.9 9.6 8.9L11.65 8.9L11.65 8.5L11.4 7.45L10 7.2L7.45 7.2L7.7 4.7L10.5 4.7C12.1 4.7 13.25 5 13.85 5.6C14.35 6.1 14.65 7.1 14.65 8.5L14.65 14.4L12.15 14.4L12.05 13.75C11.15 14.25 10.25 14.5 9.25 14.5C8.4 14.5 7.7 14.25 7.2 13.7C6.7 13.2 6.45 12.5 6.45 11.6M9.45 11.55C9.45 12.1 9.7 12.4 10.25 12.4L11 12.25L11.65 12L11.65 10.9L10.35 10.9L9.65 11.05L9.45 11.55"/>
</clipPath>
<path 
style="clip-path:url(#PathID64_ClipPathURL);fill:#FFFFFF;fill-opacity:0.6" d="M6.45 11.6C6.45 10.7 6.7 10 7.3 9.5C7.8 9.1 8.55 8.9 9.6 8.9L11.65 8.9L11.65 8.5L11.4 7.45L10 7.2L7.45 7.2L7.7 4.7L10.5 4.7C12.1 4.7 13.25 5 13.85 5.6C14.35 6.1 14.65 7.1 14.65 8.5L14.65 14.4L12.15 14.4L12.05 13.75C11.15 14.25 10.25 14.5 9.25 14.5C8.4 14.5 7.7 14.25 7.2 13.7C6.7 13.2 6.45 12.5 6.45 11.6" />
<path 
style="fill:#FFFFFF;fill-opacity:0.6" d="M4.45 14.4L1.5 14.4L1.5 7.2L0 7.2L0 4.7L1.5 4.7L1.5 3.2C1.5 2.2 1.7 1.4 2.2 0.85C2.7 0.3 3.55 0 4.75 0L6.7 0L6.7 2.5L5.5 2.5C5.1 2.5 4.8 2.55 4.65 2.75C4.55 2.85 4.5 3.1 4.5 3.5L4.45 4.7L6.75 4.7L6.45 7.2L4.45 7.2L4.45 14.4" />
</g>
</svg>
