<?xml version="1.0" encoding="utf-8"?>
<svg version="1.1" id="Layer_1"
xmlns="http://www.w3.org/2000/svg"
xmlns:xlink="http://www.w3.org/1999/xlink"
width="550px" height="400px"
xml:space="preserve">
<g id="ShapeID_245" transform="matrix(1, 0, 0, 1, 0, 0)" >
<path 
style="fill:#FFFFFF;fill-opacity:0.65098" d="M5.2 16.05C5.05 15.9 4.95 15.65 4.95 15.35L5.05 14.2L5.4 12.3L5.75 10.55L5.85 9.6C5.85 8.8 5.7 8.35 5.3 8.35C4.75 8.35 4.15 9 3.45 10.35C3 11.25 2.5 12.85 2 15.1L1.9 15.2L1.8 15.25L1.45 15.4L1.05 15.5L0.65 15.5C0.25 15.5 0 15.4 0 15.15L1 7.8L2.25 0.65C2.25 0.65 2.35 0.6 2.45 0.5L2.8 0.3L3.3 0.1L3.7 0C3.8 0 3.9 0.05 4 0.15L4.1 0.5L3.5 3.95L2.85 7.95C2.85 8.15 2.8 8.35 2.9 8.45L3.1 8.6L4.35 7.55L6.15 6.25C6.55 6 6.95 5.85 7.3 5.85C7.9 5.85 8.25 6.1 8.2 6.8L7.75 9.9L7.3 13.3L7.4 14.45C7.45 14.85 7.55 15.1 7.75 15.2C7.75 15.5 7.6 15.8 7.1 16L5.95 16.25C5.65 16.25 5.4 16.2 5.2 16.05" />
<path 
style="fill:#FFFFFF;fill-opacity:0.65098" d="M11.15 4.85L11 4.95L10.75 5L10.6 4.85L10.6 4.8L10.7 4.3L10.7 4.2L10.65 3.9L10.45 3.55L10.2 3.3L10.15 3.15L10.25 3L10.5 2.9L10.55 2.9L11.05 2.75L11.35 2.45L11.55 2.05L11.75 1.9L11.9 2.05L12.1 2.5L12.4 2.8L12.85 3L12.9 3L13.2 3.1L13.25 3.25L13.2 3.45L12.95 3.65L12.7 3.95L12.65 4.3L12.65 4.35L12.7 4.9L12.55 5.1L12.3 5L12.1 4.9L11.65 4.75L11.15 4.85" />
<path 
style="fill:#FFFFFF;fill-opacity:0.65098" d="M10.95 15.1L9.7 15.5C9.4 15.5 9.15 15.4 9.05 15.1C8.95 14.8 8.9 14.4 8.9 13.9L9.4 10.1C9.65 8.7 9.9 7.7 10.15 7.05L10.6 6.25C10.8 6.1 11 6 11.3 6L11.85 6.15L12.05 6.7L11.95 7.5L11.8 8.45L11.55 9.8L11.3 11.4L11.25 12.5L11.4 13.55L11.5 14.3C11.5 14.55 11.35 14.8 10.95 15.1" />
<path 
style="fill:#FFFFFF;fill-opacity:0.65098" d="M21 5.25C22.75 5.25 23.65 6.3 23.65 8.5C23.65 10.6 22.95 12.5 21.45 14.2C20 15.9 18.4 16.75 16.6 16.75C15.35 16.75 14.35 16.5 13.65 15.9C12.95 15.35 12.55 14.55 12.55 13.55C12.55 12.95 12.75 12.4 13.2 11.95C13.6 11.55 14.15 11.3 14.8 11.3C15.4 11.3 15.75 11.5 15.75 11.9L15.65 12.2L15.45 12.7C15.25 13.2 15.15 13.6 15.15 13.9C15.15 14.15 15.25 14.4 15.5 14.65C15.75 14.95 16.2 15.15 16.85 15.15C17.9 15.15 18.85 14.7 19.65 13.75C20.45 12.8 20.85 11.7 20.85 10.45C20.85 8.55 20 7.6 18.25 7.6C17.9 7.6 17.2 7.75 16.2 8.15L14.4 8.65L14.1 8.5L14 7.85L14.2 7L14.75 5.4L15.7 2.65L16.15 1.4C16.35 0.8 17.1 0.5 18.4 0.45L21.1 0.35C22.1 0.35 22.6 0.2 22.65 0C23.15 0 23.45 0.3 23.45 0.95C23.45 1.55 23.35 2.05 23.1 2.5C22.9 2.95 22.6 3.2 22.2 3.2L20.7 3.15L19.8 3.05L19 2.95L18.25 2.95C17.65 2.95 17.3 3.15 17.1 3.55L16.4 5.05L15.95 6.1C15.85 6.4 15.75 6.6 15.85 6.7L16.5 6.65L17.15 6.45L18.35 5.9C19.35 5.5 20.25 5.25 21 5.25" />
</g>
</svg>
