<?xml version="1.0" encoding="utf-8"?>
<svg version="1.1" id="Layer_1"
xmlns="http://www.w3.org/2000/svg"
xmlns:xlink="http://www.w3.org/1999/xlink"
width="550px" height="400px"
xml:space="preserve">
<g id="ShapeID_234" transform="matrix(1, 0, 0, 1, 0, 0)" >
<path 
style="fill:#000000;fill-opacity:1" d="M600.2 492.7L607.6 491.35C623.5 488.95 645.85 484.9 674.6 479.15C726.6 468.75 764.55 460.2 788.5 453.5C804.95 448.95 832.45 442.25 871.05 433.4L916.2 423.2C928 421 937.4 419.4 944.3 418.5L944.3 -12.45L14.1 -12.45L14.1 477.35C32.8 482.3 55.5 487.35 82.2 492.45C141.35 503.75 195.3 509.85 244.1 510.7C311.5 511.85 373.95 511.25 431.55 508.85C501.65 505.95 557.85 500.55 600.2 492.7" />
</g>
</svg>
