<?xml version="1.0" encoding="utf-8"?>
<svg version="1.1" id="Layer_1"
xmlns="http://www.w3.org/2000/svg"
xmlns:xlink="http://www.w3.org/1999/xlink"
width="550px" height="400px"
xml:space="preserve">
<g id="ShapeID_237" transform="matrix(1, 0, 0, 1, 0, 0)" >
 <clipPath  id="PathID531_ClipPathURL" clip-rule="nonzero">
<path d="M877.1 58.8C876.9 58.65 876.8 58.45 876.8 58.15C876.8 57.95 876.9 57.7 877.1 57.5C877.25 57.35 877.45 57.25 877.7 57.25C877.95 57.25 878.15 57.3 878.35 57.5L878.6 58.15L878.35 58.8L877.7 59.1C877.5 59.1 877.3 59 877.1 58.8M877 58.15L877.2 58.7L877.7 58.95L878.25 58.7L878.45 58.15L878.25 57.6L877.7 57.35C877.5 57.35 877.35 57.4 877.2 57.6L877 58.15"/>
</clipPath>
<path 
style="clip-path:url(#PathID531_ClipPathURL);fill:#FFFFFF;fill-opacity:1" d="M877.1 58.8C876.9 58.65 876.8 58.45 876.8 58.15C876.8 57.95 876.9 57.7 877.1 57.5C877.25 57.35 877.45 57.25 877.7 57.25C877.95 57.25 878.15 57.3 878.35 57.5L878.6 58.15L878.35 58.8L877.7 59.1C877.5 59.1 877.3 59 877.1 58.8" />
 <clipPath  id="PathID533_ClipPathURL" clip-rule="nonzero">
<path d="M877.65 58.25L877.55 58.25L877.55 58.7L877.4 58.7L877.4 57.65L877.65 57.65L878 57.7L878.1 57.95L877.9 58.2L878.05 58.45L878.1 58.7L877.95 58.7L877.9 58.4C877.9 58.3 877.8 58.25 877.65 58.25M877.55 58.1L877.65 58.1L877.9 57.95L877.65 57.75L877.55 57.8L877.55 58.1"/>
</clipPath>
<path 
style="clip-path:url(#PathID533_ClipPathURL);fill:#FFFFFF;fill-opacity:1" d="M877.65 58.25L877.55 58.25L877.55 58.7L877.4 58.7L877.4 57.65L877.65 57.65L878 57.7L878.1 57.95L877.9 58.2L878.05 58.45L878.1 58.7L877.95 58.7L877.9 58.4C877.9 58.3 877.8 58.25 877.65 58.25" />
</g>
</svg>
