<?xml version="1.0" encoding="utf-8"?>
<svg version="1.1" id="Layer_1"
xmlns="http://www.w3.org/2000/svg"
xmlns:xlink="http://www.w3.org/1999/xlink"
width="550px" height="400px"
xml:space="preserve">
<g id="ShapeID_37" transform="matrix(1, 0, 0, 1, 0, 0)" >
 <clipPath  id="PathID122_ClipPathURL" clip-rule="nonzero">
<path d="M23.4 16.55C23.4 18.1 23.95 19.45 25.1 20.55C26.2 21.65 27.5 22.2 29.05 22.2L51.4 22.2C52.95 22.2 54.3 21.65 55.4 20.55C56.5 19.45 57.05 18.15 57.05 16.55L57.05 5.65C57.05 4.1 56.5 2.75 55.4 1.65C54.3 0.55 53 0 51.4 0L29.05 0C27.55 0 26.2 0.55 25.1 1.65C24 2.75 23.4 4.05 23.4 5.65L23.4 16.55M53.05 17.15C52.65 17.7 51.95 18 50.95 18C49.95 18 49.25 17.65 48.85 16.95C48.5 16.45 48.3 15.65 48.2 14.6L48.1 12.05L48.2 9.9C48.2 9.05 48.4 8.4 48.7 7.9C49.2 7.2 49.95 6.8 51 6.8C52 6.8 52.7 7.2 53.2 8C53.6 8.65 53.8 9.95 53.8 11.9L53.8 12.75L50.05 12.75L50.05 13.4L50.15 15.1C50.25 15.8 50.55 16.15 51 16.15C51.6 16.15 51.95 15.45 51.95 14.05L53.7 14.05L53.75 14.45C53.75 15.65 53.55 16.55 53.05 17.15M46.95 12.45C46.95 14.05 46.85 15.25 46.65 16C46.35 17.3 45.75 18 44.75 18C44 18 43.45 17.55 43.1 16.6L43.1 17.7L41.35 17.7L41.35 3.55L43.2 3.55L43.2 8C43.5 7.2 44.05 6.8 44.8 6.8C45.75 6.8 46.4 7.45 46.7 8.85L46.95 12.45M37.8 7.1L39.7 7.1L39.7 17.7L37.85 17.7L37.85 16.65C37.45 17.55 36.9 18 36.15 18C34.95 18 34.3 17.15 34.3 15.45L34.3 7.1L36.15 7.1L36.15 14L36.25 15.25C36.35 15.65 36.55 15.85 36.95 15.85C37.3 15.85 37.55 15.65 37.7 15.2L37.8 13.85L37.8 7.1M29.05 5.95L26.7 5.95L26.7 3.55L33.4 3.55L33.4 5.95L31.05 5.95L31.05 17.7L29.05 17.7L29.05 5.95"/>
</clipPath>
<path 
style="clip-path:url(#PathID122_ClipPathURL);fill:#FFFFFF;fill-opacity:0.6" d="M23.4 16.55C23.4 18.1 23.95 19.45 25.1 20.55C26.2 21.65 27.5 22.2 29.05 22.2L51.4 22.2C52.95 22.2 54.3 21.65 55.4 20.55C56.5 19.45 57.05 18.15 57.05 16.55L57.05 5.65C57.05 4.1 56.5 2.75 55.4 1.65C54.3 0.55 53 0 51.4 0L29.05 0C27.55 0 26.2 0.55 25.1 1.65C24 2.75 23.4 4.05 23.4 5.65L23.4 16.55" />
<path 
style="fill:#FFFFFF;fill-opacity:0.6" d="M50.25 9.1C50.05 9.4 49.95 9.9 50.05 10.6L50.05 11.05L51.85 11.05L51.85 10.6L51.75 9.3C51.65 8.9 51.35 8.7 50.95 8.7C50.65 8.7 50.4 8.8 50.25 9.1" />
<path 
style="fill:#FFFFFF;fill-opacity:0.6" d="M43.2 14.75C43.3 15.55 43.65 15.95 44.15 15.95C44.6 15.95 44.9 15.5 45 14.5L45.05 12.45L45 10.3C44.9 9.35 44.65 8.85 44.15 8.85C43.65 8.85 43.35 9.4 43.2 10.5L43.15 12.85L43.2 14.75" />
<path 
style="fill:#FFFFFF;fill-opacity:0.6" d="M17.4 7.15L17.4 14.1L17.5 15.3C17.6 15.7 17.85 15.95 18.2 15.95C18.6 15.95 18.85 15.75 18.95 15.25L19.1 13.9L19.1 7.15L21 7.15L21 17.8L19.15 17.8L19.15 16.7C18.75 17.6 18.2 18.05 17.4 18.05C16.2 18.05 15.6 17.2 15.6 15.5L15.6 7.15L17.4 7.15" />
 <clipPath  id="PathID130_ClipPathURL" clip-rule="nonzero">
<path d="M11.3 18.05C10.1 18.05 9.25 17.5 8.85 16.35C8.55 15.6 8.4 14.3 8.4 12.45C8.4 10.65 8.55 9.35 8.85 8.55C9.25 7.45 10.05 6.85 11.3 6.85C12.5 6.85 13.35 7.4 13.75 8.55C14.05 9.3 14.2 10.6 14.2 12.45C14.2 14.25 14.05 15.55 13.75 16.35C13.35 17.45 12.55 18.05 11.3 18.05M10.35 11.6L10.4 14.75C10.5 15.7 10.8 16.2 11.3 16.2C11.8 16.2 12.1 15.8 12.2 14.95L12.25 12.95L12.25 11.9L12.2 9.95C12.1 9.15 11.8 8.75 11.3 8.75C10.85 8.75 10.55 9.1 10.4 9.8L10.35 11.6"/>
</clipPath>
<path 
style="clip-path:url(#PathID130_ClipPathURL);fill:#FFFFFF;fill-opacity:0.6" d="M11.3 18.05C10.1 18.05 9.25 17.5 8.85 16.35C8.55 15.6 8.4 14.3 8.4 12.45C8.4 10.65 8.55 9.35 8.85 8.55C9.25 7.45 10.05 6.85 11.3 6.85C12.5 6.85 13.35 7.4 13.75 8.55C14.05 9.3 14.2 10.6 14.2 12.45C14.2 14.25 14.05 15.55 13.75 16.35C13.35 17.45 12.55 18.05 11.3 18.05" />
<path 
style="fill:#FFFFFF;fill-opacity:0.6" d="M2.85 17.8L2.85 11.75L0 3.55L2.25 3.55L3.9 8.9L5.5 3.55L7.7 3.55L4.9 11.75L4.9 17.8L2.85 17.8" />
</g>
</svg>
